# xmcd CD database file
#
# Track frame offsets:
#	150
#	16236
#	28858
#	44303
#	59526
#	75098
#	91280
#	107143
#	119687
#	133353
#	150701
#	164951
#	179111
#	196796
#
# Disc length: 2897 seconds
#
# Revision: 0
# Processed by: cddbd v1.5.2PL0 Copyright (c) Steve Scherf et al.
# Submitted via: CDex 1.51
#
DISCID=c40b4f0e
DTITLE=Mitchell, Beverly - Beverly Mitchell
DYEAR=2007
DGENRE=Country
TTITLE0=Heaven on Earth Down Here
TTITLE1=Rolling Down Sora Avenue
TTITLE2=Walkin'
TTITLE3=Someone Who Gets Me
TTITLE4=Dream Like We're Gonna Live Forever
TTITLE5=What Am I Dong Here
TTITLE6=Black is Black
TTITLE7=A Girl's Just Got to Rock
TTITLE8=Nothin' 'Bout Nothin'
TTITLE9=You Didn't Kiss Me
TTITLE10=Angel
TTITLE11=Good Girld
TTITLE12=It it Ain't True (True Love)
TTITLE13=Ones Left Behindd, The
EXTD=YEAR: 2007
EXTT0=
EXTT1=
EXTT2=
EXTT3=
EXTT4=
EXTT5=
EXTT6=
EXTT7=
EXTT8=
EXTT9=
EXTT10=
EXTT11=
EXTT12=
EXTT13=
PLAYORDER=
